<mxfile host="app.diagrams.net" modified="2022-03-13T12:12:57.969Z" agent="5.0 (Windows NT 10.0; Win64; x64) AppleWebKit/537.36 (KHTML, like Gecko) Chrome/99.0.4844.51 Safari/537.36 Edg/99.0.1150.39" etag="TfuiEqBkUL4DSNzPdI9z" version="17.1.1" type="github">
  <diagram id="7JcDk_5Xcne25kUJDjaO" name="Page-1">
    <mxGraphModel dx="239" dy="126" grid="1" gridSize="10" guides="1" tooltips="1" connect="1" arrows="1" fold="1" page="1" pageScale="1" pageWidth="1169" pageHeight="827" math="0" shadow="0">
      <root>
        <mxCell id="0" />
        <mxCell id="1" parent="0" />
        <mxCell id="L1K0ubGPdQXraZR7r7xJ-28" value="Prezzo" style="rounded=0;whiteSpace=wrap;html=1;strokeWidth=1;perimeterSpacing=0;" parent="1" vertex="1">
          <mxGeometry x="320" y="200" width="120" height="40" as="geometry" />
        </mxCell>
        <mxCell id="L1K0ubGPdQXraZR7r7xJ-29" value="valutazione" style="rhombus;whiteSpace=wrap;html=1;" parent="1" vertex="1">
          <mxGeometry x="520" y="200" width="120" height="40" as="geometry" />
        </mxCell>
        <mxCell id="L1K0ubGPdQXraZR7r7xJ-30" value="" style="endArrow=none;html=1;rounded=0;exitX=1;exitY=0.5;exitDx=0;exitDy=0;entryX=0;entryY=0.5;entryDx=0;entryDy=0;" parent="1" source="L1K0ubGPdQXraZR7r7xJ-29" target="G3hnG48ai061pc87tdml-8" edge="1">
          <mxGeometry width="50" height="50" relative="1" as="geometry">
            <mxPoint x="610" y="320" as="sourcePoint" />
            <mxPoint x="710" y="230" as="targetPoint" />
          </mxGeometry>
        </mxCell>
        <mxCell id="L1K0ubGPdQXraZR7r7xJ-31" value="" style="endArrow=none;html=1;rounded=0;entryX=1;entryY=0.5;entryDx=0;entryDy=0;exitX=0;exitY=0.5;exitDx=0;exitDy=0;" parent="1" source="L1K0ubGPdQXraZR7r7xJ-29" target="L1K0ubGPdQXraZR7r7xJ-28" edge="1">
          <mxGeometry width="50" height="50" relative="1" as="geometry">
            <mxPoint x="610" y="320" as="sourcePoint" />
            <mxPoint x="660" y="270" as="targetPoint" />
          </mxGeometry>
        </mxCell>
        <mxCell id="L1K0ubGPdQXraZR7r7xJ-32" value="" style="endArrow=none;html=1;rounded=0;fillColor=#000000;entryX=0.166;entryY=0;entryDx=0;entryDy=0;entryPerimeter=0;exitX=0.5;exitY=1;exitDx=0;exitDy=0;" parent="1" source="L1K0ubGPdQXraZR7r7xJ-33" edge="1">
          <mxGeometry width="50" height="50" relative="1" as="geometry">
            <mxPoint x="339.5" y="180" as="sourcePoint" />
            <mxPoint x="339.41999999999985" y="200" as="targetPoint" />
          </mxGeometry>
        </mxCell>
        <mxCell id="L1K0ubGPdQXraZR7r7xJ-33" value="" style="ellipse;whiteSpace=wrap;html=1;aspect=fixed;strokeWidth=1;fillColor=none;" parent="1" vertex="1">
          <mxGeometry x="334.5" y="160" width="10" height="10" as="geometry" />
        </mxCell>
        <mxCell id="L1K0ubGPdQXraZR7r7xJ-34" value="" style="endArrow=none;html=1;rounded=0;fillColor=#000000;entryX=0.166;entryY=0;entryDx=0;entryDy=0;entryPerimeter=0;exitX=0.5;exitY=1;exitDx=0;exitDy=0;" parent="1" source="L1K0ubGPdQXraZR7r7xJ-35" edge="1">
          <mxGeometry width="50" height="50" relative="1" as="geometry">
            <mxPoint x="419.5" y="180" as="sourcePoint" />
            <mxPoint x="419.41999999999985" y="200" as="targetPoint" />
          </mxGeometry>
        </mxCell>
        <mxCell id="L1K0ubGPdQXraZR7r7xJ-35" value="" style="ellipse;whiteSpace=wrap;html=1;aspect=fixed;strokeWidth=1;fillColor=none;" parent="1" vertex="1">
          <mxGeometry x="414.5" y="160" width="10" height="10" as="geometry" />
        </mxCell>
        <mxCell id="L1K0ubGPdQXraZR7r7xJ-36" value="Data inizio" style="text;html=1;align=center;verticalAlign=middle;resizable=0;points=[];autosize=1;strokeColor=none;fillColor=none;" parent="1" vertex="1">
          <mxGeometry x="384.5" y="135" width="70" height="20" as="geometry" />
        </mxCell>
        <mxCell id="L1K0ubGPdQXraZR7r7xJ-37" value="Valore" style="text;html=1;align=center;verticalAlign=middle;resizable=0;points=[];autosize=1;strokeColor=none;fillColor=none;" parent="1" vertex="1">
          <mxGeometry x="314.5" y="135" width="50" height="20" as="geometry" />
        </mxCell>
        <mxCell id="L1K0ubGPdQXraZR7r7xJ-38" value="" style="endArrow=none;html=1;rounded=0;" parent="1" edge="1">
          <mxGeometry width="50" height="50" relative="1" as="geometry">
            <mxPoint x="410" y="180" as="sourcePoint" />
            <mxPoint x="460" y="230" as="targetPoint" />
            <Array as="points">
              <mxPoint x="460" y="180" />
            </Array>
          </mxGeometry>
        </mxCell>
        <mxCell id="L1K0ubGPdQXraZR7r7xJ-39" value="" style="ellipse;whiteSpace=wrap;html=1;aspect=fixed;strokeWidth=1;fillColor=#000000;" parent="1" vertex="1">
          <mxGeometry x="454.5" y="230" width="10" height="10" as="geometry" />
        </mxCell>
        <mxCell id="UBl3L2ol2V0kKMS2N7Tc-1" value="(1,N)" style="text;html=1;align=center;verticalAlign=middle;resizable=0;points=[];autosize=1;strokeColor=none;fillColor=none;" parent="1" vertex="1">
          <mxGeometry x="680" y="199.5" width="40" height="20" as="geometry" />
        </mxCell>
        <mxCell id="UBl3L2ol2V0kKMS2N7Tc-2" value="(1,1)" style="text;html=1;align=center;verticalAlign=middle;resizable=0;points=[];autosize=1;strokeColor=none;fillColor=none;" parent="1" vertex="1">
          <mxGeometry x="460" y="200" width="40" height="20" as="geometry" />
        </mxCell>
        <mxCell id="G3hnG48ai061pc87tdml-1" value="Prezzo passato" style="rounded=0;whiteSpace=wrap;html=1;strokeWidth=1;perimeterSpacing=0;" vertex="1" parent="1">
          <mxGeometry x="200" y="360" width="120" height="40" as="geometry" />
        </mxCell>
        <mxCell id="G3hnG48ai061pc87tdml-2" value="Prezzo corrente" style="rounded=0;whiteSpace=wrap;html=1;strokeWidth=1;perimeterSpacing=0;" vertex="1" parent="1">
          <mxGeometry x="440" y="360" width="120" height="40" as="geometry" />
        </mxCell>
        <mxCell id="G3hnG48ai061pc87tdml-3" value="" style="endArrow=none;html=1;rounded=0;exitX=0.5;exitY=0;exitDx=0;exitDy=0;entryX=0.5;entryY=0;entryDx=0;entryDy=0;" edge="1" parent="1" source="G3hnG48ai061pc87tdml-1" target="G3hnG48ai061pc87tdml-2">
          <mxGeometry width="50" height="50" relative="1" as="geometry">
            <mxPoint x="380" y="300" as="sourcePoint" />
            <mxPoint x="430" y="250" as="targetPoint" />
            <Array as="points">
              <mxPoint x="260" y="320" />
              <mxPoint x="500" y="320" />
            </Array>
          </mxGeometry>
        </mxCell>
        <mxCell id="G3hnG48ai061pc87tdml-4" value="" style="shape=flexArrow;endArrow=classic;html=1;rounded=0;entryX=0.5;entryY=1;entryDx=0;entryDy=0;fillColor=#000000;" edge="1" parent="1" target="L1K0ubGPdQXraZR7r7xJ-28">
          <mxGeometry width="50" height="50" relative="1" as="geometry">
            <mxPoint x="380" y="320" as="sourcePoint" />
            <mxPoint x="430" y="250" as="targetPoint" />
          </mxGeometry>
        </mxCell>
        <mxCell id="G3hnG48ai061pc87tdml-5" value="" style="ellipse;whiteSpace=wrap;html=1;aspect=fixed;strokeWidth=1;fillColor=none;" vertex="1" parent="1">
          <mxGeometry x="160" y="375" width="10" height="10" as="geometry" />
        </mxCell>
        <mxCell id="G3hnG48ai061pc87tdml-6" value="" style="endArrow=none;html=1;rounded=0;exitX=1;exitY=0.5;exitDx=0;exitDy=0;entryX=0;entryY=0.5;entryDx=0;entryDy=0;" edge="1" parent="1" source="G3hnG48ai061pc87tdml-5" target="G3hnG48ai061pc87tdml-1">
          <mxGeometry width="50" height="50" relative="1" as="geometry">
            <mxPoint x="191" y="401" as="sourcePoint" />
            <mxPoint x="190" y="381" as="targetPoint" />
          </mxGeometry>
        </mxCell>
        <mxCell id="G3hnG48ai061pc87tdml-7" value="Data fine" style="text;html=1;align=center;verticalAlign=middle;resizable=0;points=[];autosize=1;strokeColor=none;fillColor=none;" vertex="1" parent="1">
          <mxGeometry x="96" y="369" width="60" height="20" as="geometry" />
        </mxCell>
        <mxCell id="G3hnG48ai061pc87tdml-8" value="Pianta" style="rounded=0;whiteSpace=wrap;html=1;strokeWidth=1;perimeterSpacing=0;" vertex="1" parent="1">
          <mxGeometry x="720" y="199.5" width="120" height="40" as="geometry" />
        </mxCell>
        <mxCell id="G3hnG48ai061pc87tdml-9" value="" style="endArrow=none;html=1;rounded=0;fillColor=#000000;entryX=0.083;entryY=-0.006;entryDx=0;entryDy=0;entryPerimeter=0;exitX=0.5;exitY=1;exitDx=0;exitDy=0;" edge="1" parent="1" source="G3hnG48ai061pc87tdml-10" target="G3hnG48ai061pc87tdml-8">
          <mxGeometry width="50" height="50" relative="1" as="geometry">
            <mxPoint x="730" y="178.5" as="sourcePoint" />
            <mxPoint x="729.9200000000001" y="198.5" as="targetPoint" />
          </mxGeometry>
        </mxCell>
        <mxCell id="G3hnG48ai061pc87tdml-10" value="" style="ellipse;whiteSpace=wrap;html=1;aspect=fixed;strokeWidth=1;fillColor=#000000;" vertex="1" parent="1">
          <mxGeometry x="725" y="159.5" width="10" height="10" as="geometry" />
        </mxCell>
        <mxCell id="G3hnG48ai061pc87tdml-11" value="Codice" style="text;html=1;align=center;verticalAlign=middle;resizable=0;points=[];autosize=1;strokeColor=none;fillColor=none;" vertex="1" parent="1">
          <mxGeometry x="705" y="138.5" width="50" height="20" as="geometry" />
        </mxCell>
        <mxCell id="G3hnG48ai061pc87tdml-12" value="" style="endArrow=none;html=1;rounded=0;fillColor=#000000;entryX=0.5;entryY=0;entryDx=0;entryDy=0;exitX=0.5;exitY=1;exitDx=0;exitDy=0;" edge="1" parent="1" source="G3hnG48ai061pc87tdml-13" target="G3hnG48ai061pc87tdml-8">
          <mxGeometry width="50" height="50" relative="1" as="geometry">
            <mxPoint x="780" y="178.5" as="sourcePoint" />
            <mxPoint x="779.9200000000001" y="198.5" as="targetPoint" />
          </mxGeometry>
        </mxCell>
        <mxCell id="G3hnG48ai061pc87tdml-13" value="" style="ellipse;whiteSpace=wrap;html=1;aspect=fixed;strokeWidth=1;fillColor=none;" vertex="1" parent="1">
          <mxGeometry x="775" y="159.5" width="10" height="10" as="geometry" />
        </mxCell>
        <mxCell id="G3hnG48ai061pc87tdml-14" value="Nome &lt;br&gt;latino" style="text;html=1;align=center;verticalAlign=middle;resizable=0;points=[];autosize=1;strokeColor=none;fillColor=none;" vertex="1" parent="1">
          <mxGeometry x="755" y="128.5" width="50" height="30" as="geometry" />
        </mxCell>
        <mxCell id="G3hnG48ai061pc87tdml-15" value="" style="endArrow=none;html=1;rounded=0;fillColor=#000000;entryX=0.916;entryY=-0.001;entryDx=0;entryDy=0;entryPerimeter=0;exitX=0.5;exitY=1;exitDx=0;exitDy=0;" edge="1" parent="1" source="G3hnG48ai061pc87tdml-16" target="G3hnG48ai061pc87tdml-8">
          <mxGeometry width="50" height="50" relative="1" as="geometry">
            <mxPoint x="830" y="178.5" as="sourcePoint" />
            <mxPoint x="829.9200000000001" y="198.5" as="targetPoint" />
          </mxGeometry>
        </mxCell>
        <mxCell id="G3hnG48ai061pc87tdml-16" value="" style="ellipse;whiteSpace=wrap;html=1;aspect=fixed;strokeWidth=1;fillColor=none;" vertex="1" parent="1">
          <mxGeometry x="825" y="159.5" width="10" height="10" as="geometry" />
        </mxCell>
        <mxCell id="G3hnG48ai061pc87tdml-17" value="Nome &lt;br&gt;comune" style="text;html=1;align=center;verticalAlign=middle;resizable=0;points=[];autosize=1;strokeColor=none;fillColor=none;" vertex="1" parent="1">
          <mxGeometry x="800" y="128.5" width="60" height="30" as="geometry" />
        </mxCell>
        <mxCell id="G3hnG48ai061pc87tdml-18" value="" style="ellipse;whiteSpace=wrap;html=1;aspect=fixed;strokeWidth=1;fillColor=none;" vertex="1" parent="1">
          <mxGeometry x="870" y="204.5" width="10" height="10" as="geometry" />
        </mxCell>
        <mxCell id="G3hnG48ai061pc87tdml-19" value="" style="endArrow=none;html=1;rounded=0;exitX=1;exitY=0.25;exitDx=0;exitDy=0;entryX=0;entryY=0.5;entryDx=0;entryDy=0;" edge="1" parent="1" source="G3hnG48ai061pc87tdml-8" target="G3hnG48ai061pc87tdml-18">
          <mxGeometry width="50" height="50" relative="1" as="geometry">
            <mxPoint x="830" y="229.5" as="sourcePoint" />
            <mxPoint x="880" y="179.5" as="targetPoint" />
          </mxGeometry>
        </mxCell>
        <mxCell id="G3hnG48ai061pc87tdml-20" value="Tipo pianta" style="text;html=1;align=center;verticalAlign=middle;resizable=0;points=[];autosize=1;strokeColor=none;fillColor=none;" vertex="1" parent="1">
          <mxGeometry x="880" y="199.5" width="70" height="20" as="geometry" />
        </mxCell>
        <mxCell id="G3hnG48ai061pc87tdml-21" value="(1,N)" style="text;html=1;align=center;verticalAlign=middle;resizable=0;points=[];autosize=1;strokeColor=none;fillColor=none;" vertex="1" parent="1">
          <mxGeometry x="835" y="190.5" width="40" height="20" as="geometry" />
        </mxCell>
        <mxCell id="G3hnG48ai061pc87tdml-22" value="" style="ellipse;whiteSpace=wrap;html=1;aspect=fixed;strokeWidth=1;fillColor=none;" vertex="1" parent="1">
          <mxGeometry x="870" y="224.5" width="10" height="10" as="geometry" />
        </mxCell>
        <mxCell id="G3hnG48ai061pc87tdml-23" value="" style="endArrow=none;html=1;rounded=0;exitX=1;exitY=0.75;exitDx=0;exitDy=0;entryX=0;entryY=0.5;entryDx=0;entryDy=0;" edge="1" parent="1" source="G3hnG48ai061pc87tdml-8" target="G3hnG48ai061pc87tdml-22">
          <mxGeometry width="50" height="50" relative="1" as="geometry">
            <mxPoint x="850" y="249.5" as="sourcePoint" />
            <mxPoint x="900" y="199.5" as="targetPoint" />
          </mxGeometry>
        </mxCell>
        <mxCell id="G3hnG48ai061pc87tdml-24" value="Colorazione" style="text;html=1;align=center;verticalAlign=middle;resizable=0;points=[];autosize=1;strokeColor=none;fillColor=none;" vertex="1" parent="1">
          <mxGeometry x="880" y="219.5" width="80" height="20" as="geometry" />
        </mxCell>
        <mxCell id="G3hnG48ai061pc87tdml-25" value="(0,N)" style="text;html=1;align=center;verticalAlign=middle;resizable=0;points=[];autosize=1;strokeColor=none;fillColor=none;" vertex="1" parent="1">
          <mxGeometry x="835" y="210.5" width="40" height="20" as="geometry" />
        </mxCell>
        <mxCell id="G3hnG48ai061pc87tdml-26" value="" style="ellipse;whiteSpace=wrap;html=1;aspect=fixed;strokeWidth=1;fillColor=none;" vertex="1" parent="1">
          <mxGeometry x="775" y="269.5" width="10" height="10" as="geometry" />
        </mxCell>
        <mxCell id="G3hnG48ai061pc87tdml-27" value="" style="endArrow=none;html=1;rounded=0;entryX=0.5;entryY=1;entryDx=0;entryDy=0;" edge="1" parent="1" target="G3hnG48ai061pc87tdml-8">
          <mxGeometry width="50" height="50" relative="1" as="geometry">
            <mxPoint x="780" y="269.5" as="sourcePoint" />
            <mxPoint x="830" y="219.5" as="targetPoint" />
          </mxGeometry>
        </mxCell>
        <mxCell id="G3hnG48ai061pc87tdml-28" value="Giacenza" style="text;html=1;align=center;verticalAlign=middle;resizable=0;points=[];autosize=1;strokeColor=none;fillColor=none;" vertex="1" parent="1">
          <mxGeometry x="745" y="279.5" width="70" height="20" as="geometry" />
        </mxCell>
      </root>
    </mxGraphModel>
  </diagram>
</mxfile>
